<svg width="17" height="16" viewBox="0 0 17 16" fill="none" xmlns="http://www.w3.org/2000/svg">
<g clip-path="url(#clip0_1_8918)">
<path d="M16.7129 8C16.7129 3.58174 13.1312 1.04904e-05 8.71288 1.04904e-05C4.29462 1.04904e-05 0.712891 3.58174 0.712891 8C0.712891 11.7518 3.29577 14.8999 6.78028 15.7644V10.4447H5.13061V8H6.78028V6.9466C6.78028 4.22365 8.01253 2.96158 10.6858 2.96158C11.1926 2.96158 12.0672 3.06094 12.4249 3.16033V5.37645C12.2361 5.35658 11.9081 5.34663 11.5007 5.34663C10.1889 5.34663 9.68207 5.84353 9.68207 7.13543V8H12.2952L11.8463 10.4447H9.68207V15.9414C13.6432 15.463 16.7129 12.0902 16.7129 8Z" fill="#0866FF"/>
<path d="M11.8465 10.4447L12.2954 8.00001H9.68234V7.1354C9.68234 5.8435 10.1892 5.34663 11.5009 5.34663C11.9084 5.34663 12.2363 5.35655 12.4252 5.37642V3.16033C12.0674 3.06094 11.1929 2.96154 10.6861 2.96154C8.01281 2.96154 6.78052 4.22366 6.78052 6.9466V8.00001H5.13086V10.4447H6.78052V15.7644C7.3995 15.918 8.0467 16 8.71313 16C9.04126 16 9.36458 15.9798 9.68234 15.9414V10.4447H11.8465Z" fill="white"/>
</g>
<defs>
<clipPath id="clip0_1_8918">
<rect width="16" height="16" fill="white" transform="translate(0.712891)"/>
</clipPath>
</defs>
</svg>
