<svg width="17" height="16" viewBox="0 0 17 16" fill="none" xmlns="http://www.w3.org/2000/svg">
<g clip-path="url(#clip0_1_9245)">
<path d="M8.71289 6.54541V9.6436H13.0183C12.8293 10.64 12.2619 11.4836 11.411 12.0509L14.0074 14.0655C15.5201 12.6691 16.3928 10.6182 16.3928 8.18185C16.3928 7.61459 16.342 7.06909 16.2474 6.5455L8.71289 6.54541Z" fill="#4285F4"/>
<path d="M4.22865 9.52271L3.64307 9.97096L1.57031 11.5855C2.88667 14.1964 5.58465 16 8.7119 16C10.8718 16 12.6827 15.2873 14.0064 14.0655L11.4101 12.0509C10.6973 12.5309 9.78822 12.8219 8.7119 12.8219C6.63191 12.8219 4.86469 11.4183 4.23192 9.52732L4.22865 9.52271Z" fill="#34A853"/>
<path d="M1.57101 4.41455C1.02559 5.49087 0.712891 6.70543 0.712891 7.99996C0.712891 9.29448 1.02559 10.509 1.57101 11.5854C1.57101 11.5926 4.23287 9.51991 4.23287 9.51991C4.07287 9.03991 3.9783 8.53085 3.9783 7.99987C3.9783 7.46889 4.07287 6.95984 4.23287 6.47984L1.57101 4.41455Z" fill="#FBBC05"/>
<path d="M8.71207 3.18545C9.89027 3.18545 10.9375 3.59271 11.7739 4.37818L14.0648 2.0873C12.6757 0.792777 10.8721 0 8.71207 0C5.58482 0 2.88667 1.79636 1.57031 4.41455L4.23209 6.48001C4.86478 4.58908 6.63208 3.18545 8.71207 3.18545Z" fill="#EA4335"/>
</g>
<defs>
<clipPath id="clip0_1_9245">
<rect width="16" height="16" fill="white" transform="translate(0.712891)"/>
</clipPath>
</defs>
</svg>
