<svg width="17" height="16" viewBox="0 0 17 16" fill="none" xmlns="http://www.w3.org/2000/svg">
<g clip-path="url(#clip0_1_8946)">
<path d="M16.394 4.12365C16.3035 3.78326 16.1252 3.47259 15.877 3.22275C15.6287 2.97291 15.3192 2.79265 14.9794 2.70001C13.7285 2.36365 8.72852 2.36365 8.72852 2.36365C8.72852 2.36365 3.72852 2.36365 2.47761 2.70001C2.1378 2.79265 1.82829 2.97291 1.58004 3.22275C1.33179 3.47259 1.15352 3.78326 1.06306 4.12365C0.728516 5.38001 0.728516 8.00001 0.728516 8.00001C0.728516 8.00001 0.728516 10.62 1.06306 11.8764C1.15352 12.2168 1.33179 12.5274 1.58004 12.7773C1.82829 13.0271 2.1378 13.2074 2.47761 13.3C3.72852 13.6364 8.72852 13.6364 8.72852 13.6364C8.72852 13.6364 13.7285 13.6364 14.9794 13.3C15.3192 13.2074 15.6287 13.0271 15.877 12.7773C16.1252 12.5274 16.3035 12.2168 16.394 11.8764C16.7285 10.62 16.7285 8.00001 16.7285 8.00001C16.7285 8.00001 16.7285 5.38001 16.394 4.12365Z" fill="#FF0302"/>
<path d="M7.0918 10.3792V5.62097L11.2736 8.00006L7.0918 10.3792Z" fill="white"/>
</g>
<defs>
<clipPath id="clip0_1_8946">
<rect width="16" height="16" fill="white" transform="translate(0.712891)"/>
</clipPath>
</defs>
</svg>
