<svg width="24" height="25" viewBox="0 0 24 25" fill="none" xmlns="http://www.w3.org/2000/svg">
<path d="M11 2.3222C9.67392 2.3222 8.40215 2.84899 7.46447 3.78667C6.52678 4.72435 6 5.99612 6 7.3222C6 8.64829 6.52678 9.92006 7.46447 10.8577C8.40215 11.7954 9.67392 12.3222 11 12.3222C12.3261 12.3222 13.5979 11.7954 14.5355 10.8577C15.4732 9.92006 16 8.64829 16 7.3222C16 5.99612 15.4732 4.72435 14.5355 3.78667C13.5979 2.84899 12.3261 2.3222 11 2.3222ZM11 13.3222C8.605 13.3222 6.425 14.0162 4.822 14.9942C4.022 15.4822 3.338 16.0582 2.844 16.6842C2.358 17.2982 2 18.0352 2 18.8222C2 19.6672 2.411 20.3332 3.003 20.8082C3.563 21.2582 4.302 21.5562 5.087 21.7642C6.665 22.1812 8.771 22.3222 11 22.3222L11.685 22.3172C11.8525 22.3149 12.0167 22.2706 12.1626 22.1883C12.3085 22.106 12.4313 21.9884 12.5199 21.8462C12.6085 21.7041 12.66 21.542 12.6696 21.3747C12.6792 21.2075 12.6467 21.0406 12.575 20.8892C12.1958 20.0866 11.9994 19.2099 12 18.3222C12 17.0702 12.383 15.9102 13.037 14.9492C13.1342 14.8064 13.1928 14.6408 13.207 14.4687C13.2212 14.2965 13.1905 14.1236 13.118 13.9668C13.0455 13.81 12.9336 13.6746 12.7932 13.5739C12.6528 13.4732 12.4888 13.4106 12.317 13.3922C11.8863 13.3455 11.4473 13.3222 11 13.3222ZM15.5 15.0132C16.253 14.5742 17.179 14.5172 18 14.9672C18.821 14.5172 19.747 14.5742 20.5 15.0132C21.416 15.5472 22.026 16.6032 22 17.8012C21.964 19.3712 20.752 20.5992 19.114 21.5722C18.771 21.7752 18.411 21.9892 18 21.9892C17.59 21.9892 17.229 21.7752 16.886 21.5722C15.248 20.5992 14.036 19.3702 14.001 17.8022C13.974 16.6042 14.584 15.5472 15.5 15.0132Z" fill="#F05406"/>
</svg>
