<svg width="24" height="25" viewBox="0 0 24 25" fill="none" xmlns="http://www.w3.org/2000/svg">
<path d="M5 13.3225L16.86 13.3225L13.23 17.6825C13.0603 17.8867 12.9786 18.15 13.003 18.4144C13.0274 18.6788 13.1558 18.9227 13.36 19.0925C13.5642 19.2622 13.8275 19.3439 14.0919 19.3195C14.3564 19.2951 14.6003 19.1667 14.77 18.9625L19.77 12.9625C19.8036 12.9148 19.8337 12.8646 19.86 12.8125C19.86 12.7625 19.86 12.7325 19.93 12.6825C19.9753 12.5678 19.9991 12.4458 20 12.3225C19.9991 12.1992 19.9753 12.0771 19.93 11.9625C19.93 11.9125 19.93 11.8825 19.86 11.8325C19.8337 11.7803 19.8036 11.7302 19.77 11.6825L14.77 5.68248C14.676 5.5696 14.5582 5.47882 14.4252 5.4166C14.2921 5.35437 14.1469 5.32224 14 5.32248C13.7663 5.32202 13.5399 5.4034 13.36 5.55248C13.2587 5.63643 13.175 5.73953 13.1137 5.85588C13.0523 5.97222 13.0145 6.09953 13.0025 6.23051C12.9904 6.36148 13.0043 6.49356 13.0433 6.61916C13.0824 6.74476 13.1458 6.86143 13.23 6.96248L16.86 11.3225L5 11.3225C4.73478 11.3225 4.48043 11.4278 4.29289 11.6154C4.10536 11.8029 4 12.0573 4 12.3225C4 12.5877 4.10536 12.842 4.29289 13.0296C4.48043 13.2171 4.73478 13.3225 5 13.3225Z" fill="white"/>
</svg>
