<svg width="17" height="18" viewBox="0 0 17 18" fill="none" xmlns="http://www.w3.org/2000/svg">
<path d="M8.28711 0.75C7.29255 0.75 6.33872 1.14509 5.63546 1.84835C4.9322 2.55161 4.53711 3.50544 4.53711 4.5C4.53711 5.49456 4.9322 6.44839 5.63546 7.15165C6.33872 7.85491 7.29255 8.25 8.28711 8.25C9.28167 8.25 10.2355 7.85491 10.9388 7.15165C11.642 6.44839 12.0371 5.49456 12.0371 4.5C12.0371 3.50544 11.642 2.55161 10.9388 1.84835C10.2355 1.14509 9.28167 0.75 8.28711 0.75ZM4.28711 10.25C3.29255 10.25 2.33872 10.6451 1.63546 11.3483C0.932198 12.0516 0.537109 13.0054 0.537109 14V15.188C0.537109 15.942 1.08311 16.584 1.82711 16.705C6.10511 17.404 10.4691 17.404 14.7471 16.705C15.1069 16.6458 15.4341 16.4608 15.6703 16.1831C15.9065 15.9053 16.0365 15.5527 16.0371 15.188V14C16.0371 13.0054 15.642 12.0516 14.9388 11.3483C14.2355 10.6451 13.2817 10.25 12.2871 10.25H11.9471C11.7604 10.2507 11.5791 10.2793 11.4031 10.336L10.5371 10.619C9.07508 11.0963 7.49914 11.0963 6.03711 10.619L5.17111 10.336C4.99558 10.2797 4.81244 10.2507 4.62811 10.25H4.28711Z" fill="#3175FF"/>
</svg>
