<svg width="16" height="17" viewBox="0 0 16 17" fill="none" xmlns="http://www.w3.org/2000/svg">
<path d="M5.42094 1.77722L2.94627 6.10789H1.99961C1.89714 6.108 1.79607 6.13171 1.70424 6.17718C1.61241 6.22264 1.53228 6.28865 1.47007 6.37007C1.40786 6.45149 1.36524 6.54615 1.3455 6.6467C1.32577 6.74725 1.32945 6.85099 1.35627 6.94989L3.22227 13.7919C3.29962 14.0739 3.46738 14.3228 3.6998 14.5003C3.93223 14.6778 4.21648 14.7742 4.50894 14.7746H11.4909C12.0896 14.7746 12.6189 14.3712 12.7776 13.7912L14.6436 6.94922C14.6707 6.85029 14.6746 6.74642 14.655 6.64574C14.6353 6.54505 14.5927 6.45027 14.5303 6.36881C14.4679 6.28735 14.3876 6.22141 14.2955 6.17615C14.2035 6.13089 14.1022 6.10752 13.9996 6.10789H13.0529L10.5783 1.77722L9.42094 2.43856L11.5176 6.10789H4.48161L6.57827 2.43856L5.42094 1.77722ZM9.33294 8.77456H10.6663V12.1079H9.33294V8.77456ZM5.33294 8.77456H6.66627V12.1079H5.33294V8.77456Z" fill="white"/>
</svg>
