<svg width="14" height="14" viewBox="0 0 14 14" fill="none" xmlns="http://www.w3.org/2000/svg">
<path d="M11.3763 1.77456H10.7096V1.10789C10.7096 0.70789 10.443 0.441223 10.043 0.441223C9.64297 0.441223 9.3763 0.70789 9.3763 1.10789V1.77456H4.04297V1.10789C4.04297 0.70789 3.7763 0.441223 3.3763 0.441223C2.9763 0.441223 2.70964 0.70789 2.70964 1.10789V1.77456H2.04297C0.909635 1.77456 0.0429688 2.64122 0.0429688 3.77456V4.44122H13.3763V3.77456C13.3763 2.64122 12.5096 1.77456 11.3763 1.77456ZM0.0429688 11.7746C0.0429688 12.9079 0.909635 13.7746 2.04297 13.7746H11.3763C12.5096 13.7746 13.3763 12.9079 13.3763 11.7746V5.77456H0.0429688V11.7746ZM10.043 7.10789C10.443 7.10789 10.7096 7.37456 10.7096 7.77456C10.7096 8.17456 10.443 8.44122 10.043 8.44122C9.64297 8.44122 9.3763 8.17456 9.3763 7.77456C9.3763 7.37456 9.64297 7.10789 10.043 7.10789ZM10.043 9.77456C10.443 9.77456 10.7096 10.0412 10.7096 10.4412C10.7096 10.8412 10.443 11.1079 10.043 11.1079C9.64297 11.1079 9.3763 10.8412 9.3763 10.4412C9.3763 10.0412 9.64297 9.77456 10.043 9.77456ZM6.70964 7.10789C7.10964 7.10789 7.3763 7.37456 7.3763 7.77456C7.3763 8.17456 7.10964 8.44122 6.70964 8.44122C6.30964 8.44122 6.04297 8.17456 6.04297 7.77456C6.04297 7.37456 6.30964 7.10789 6.70964 7.10789ZM6.70964 9.77456C7.10964 9.77456 7.3763 10.0412 7.3763 10.4412C7.3763 10.8412 7.10964 11.1079 6.70964 11.1079C6.30964 11.1079 6.04297 10.8412 6.04297 10.4412C6.04297 10.0412 6.30964 9.77456 6.70964 9.77456ZM3.3763 7.10789C3.7763 7.10789 4.04297 7.37456 4.04297 7.77456C4.04297 8.17456 3.7763 8.44122 3.3763 8.44122C2.9763 8.44122 2.70964 8.17456 2.70964 7.77456C2.70964 7.37456 2.9763 7.10789 3.3763 7.10789ZM3.3763 9.77456C3.7763 9.77456 4.04297 10.0412 4.04297 10.4412C4.04297 10.8412 3.7763 11.1079 3.3763 11.1079C2.9763 11.1079 2.70964 10.8412 2.70964 10.4412C2.70964 10.0412 2.9763 9.77456 3.3763 9.77456Z" fill="white"/>
</svg>
