<svg width="169" height="105" viewBox="0 0 169 105" fill="none" xmlns="http://www.w3.org/2000/svg">
<g clip-path="url(#clip0_1_24459)">
<rect x="0.710938" y="-0.000244141" width="168" height="105" rx="5.25" fill="#F6F8FB"/>
<rect x="7.42969" y="6.71973" width="11.76" height="11.76" rx="2.52" fill="#E8F6FF"/>
<rect x="7.63969" y="6.92973" width="11.34" height="11.34" rx="2.31" stroke="#061237" stroke-opacity="0.1" stroke-width="0.42"/>
<rect x="22.5508" y="7.97974" width="17.7696" height="2.52" rx="0.42" fill="#061237" fill-opacity="0.3"/>
<rect x="22.5508" y="13.0198" width="63" height="1.26" rx="0.42" fill="#061237" fill-opacity="0.15"/>
<rect x="22.5508" y="15.9597" width="26.5847" height="1.26" rx="0.42" fill="#061237" fill-opacity="0.15"/>
<rect x="7.42969" y="25.6196" width="154.56" height="43.26" rx="1.68" fill="#E8F6FF"/>
<rect x="7.63969" y="25.8296" width="154.14" height="42.84" rx="1.47" stroke="#061237" stroke-opacity="0.1" stroke-width="0.42"/>
<rect x="7.42969" y="70.5596" width="37.38" height="27.72" rx="1.68" fill="#E8F6FF"/>
<rect x="7.63969" y="70.7696" width="36.96" height="27.3" rx="1.47" stroke="#061237" stroke-opacity="0.1" stroke-width="0.42"/>
<rect x="46.4883" y="70.5596" width="37.38" height="27.72" rx="1.68" fill="#E8F6FF"/>
<rect x="46.6983" y="70.7696" width="36.96" height="27.3" rx="1.47" stroke="#061237" stroke-opacity="0.1" stroke-width="0.42"/>
<rect x="85.5508" y="70.5596" width="37.38" height="27.72" rx="1.68" fill="#E8F6FF"/>
<rect x="85.7608" y="70.7696" width="36.96" height="27.3" rx="1.47" stroke="#061237" stroke-opacity="0.1" stroke-width="0.42"/>
<rect x="124.609" y="70.5596" width="37.38" height="27.72" rx="1.68" fill="#E8F6FF"/>
<rect x="124.819" y="70.7696" width="36.96" height="27.3" rx="1.47" stroke="#061237" stroke-opacity="0.1" stroke-width="0.42"/>
</g>
<defs>
<clipPath id="clip0_1_24459">
<rect x="0.710938" y="-0.000244141" width="168" height="105" rx="5.25" fill="white"/>
</clipPath>
</defs>
</svg>
