<svg width="16" height="16" viewBox="0 0 16 16" fill="none" xmlns="http://www.w3.org/2000/svg">
<path d="M10.0026 12.3332C8.33594 12.3332 6.8826 11.3866 6.1626 9.99991H10.0026L10.6693 8.66658H5.7226C5.68927 8.44658 5.66927 8.22658 5.66927 7.99991C5.66927 7.77324 5.68927 7.55324 5.7226 7.33324H10.0026L10.6693 5.99991H6.1626C6.52765 5.29665 7.07881 4.70714 7.75596 4.29568C8.43311 3.88421 9.21024 3.6666 10.0026 3.66658C11.0759 3.66658 12.0626 4.05991 12.8226 4.71324L14.0026 3.53324C12.9047 2.54516 11.4797 1.99889 10.0026 1.99991C7.38927 1.99991 5.17594 3.66658 4.33594 5.99991H2.0026L1.33594 7.33324H4.0426C4.0026 7.55324 4.0026 7.77324 4.0026 7.99991C4.0026 8.22658 4.0026 8.44658 4.0426 8.66658H2.0026L1.33594 9.99991H4.33594C5.17594 12.3332 7.38927 13.9999 10.0026 13.9999C11.5426 13.9999 12.9426 13.4199 14.0026 12.4666L12.8159 11.2866C12.0626 11.9399 11.0826 12.3332 10.0026 12.3332Z" fill="#061237"/>
</svg>
