<svg width="17" height="16" viewBox="0 0 17 16" fill="none" xmlns="http://www.w3.org/2000/svg">
<path d="M12.7155 8.66732H9.38216V12.0007C9.38216 12.3673 9.08216 12.6673 8.7155 12.6673C8.34883 12.6673 8.04883 12.3673 8.04883 12.0007V8.66732H4.71549C4.34883 8.66732 4.04883 8.36732 4.04883 8.00065C4.04883 7.63399 4.34883 7.33399 4.71549 7.33399H8.04883V4.00065C8.04883 3.63398 8.34883 3.33398 8.7155 3.33398C9.08216 3.33398 9.38216 3.63398 9.38216 4.00065V7.33399H12.7155C13.0822 7.33399 13.3822 7.63399 13.3822 8.00065C13.3822 8.36732 13.0822 8.66732 12.7155 8.66732Z" fill="#3175FF"/>
</svg>
