<svg width="16" height="17" viewBox="0 0 16 17" fill="none" xmlns="http://www.w3.org/2000/svg">
<mask id="mask0_113_2023" style="mask-type:luminance" maskUnits="userSpaceOnUse" x="0" y="2" width="16" height="13">
<path d="M13.6663 2.77457H2.33301C1.78072 2.77457 1.33301 3.22228 1.33301 3.77457V12.4412C1.33301 12.9935 1.78072 13.4412 2.33301 13.4412H13.6663C14.2186 13.4412 14.6663 12.9935 14.6663 12.4412V3.77457C14.6663 3.22228 14.2186 2.77457 13.6663 2.77457Z" stroke="white" stroke-width="1.33333" stroke-linejoin="round"/>
<path d="M1.33301 3.77457C1.33301 3.50935 1.43836 3.255 1.6259 3.06746C1.81344 2.87992 2.06779 2.77457 2.33301 2.77457H13.6663C13.9316 2.77457 14.1859 2.87992 14.3734 3.06746C14.561 3.255 14.6663 3.50935 14.6663 3.77457V6.77457H1.33301V3.77457Z" fill="white" stroke="white" stroke-width="1.33333"/>
<path d="M2.66667 4.77456C2.66667 4.40637 2.96514 4.10789 3.33333 4.10789C3.70152 4.10789 4 4.40637 4 4.77456C4 5.14275 3.70152 5.44122 3.33333 5.44122C2.96514 5.44122 2.66667 5.14275 2.66667 4.77456Z" fill="black"/>
<path d="M4.66667 4.77456C4.66667 4.40637 4.96514 4.10789 5.33333 4.10789C5.70152 4.10789 6 4.40637 6 4.77456C6 5.14275 5.70152 5.44122 5.33333 5.44122C4.96514 5.44122 4.66667 5.14275 4.66667 4.77456Z" fill="black"/>
</mask>
<g mask="url(#mask0_113_2023)">
<path d="M0 0.10791H16V16.1079H0V0.10791Z" fill="white"/>
</g>
</svg>
