<svg width="169" height="105" viewBox="0 0 169 105" fill="none" xmlns="http://www.w3.org/2000/svg">
<g clip-path="url(#clip0_1_23808)">
<rect x="0.710938" y="-0.000244141" width="168" height="105" rx="5.25" fill="#F6F8FB"/>
<rect x="7.42969" y="6.71973" width="11.76" height="11.76" rx="2.52" fill="#E8F6FF"/>
<rect x="7.63969" y="6.92973" width="11.34" height="11.34" rx="2.31" stroke="#061237" stroke-opacity="0.1" stroke-width="0.42"/>
<rect x="22.5508" y="7.97974" width="17.7696" height="2.52" rx="0.42" fill="#061237" fill-opacity="0.3"/>
<rect x="22.5508" y="13.0198" width="63" height="1.26" rx="0.42" fill="#061237" fill-opacity="0.15"/>
<rect x="22.5508" y="15.9597" width="26.5847" height="1.26" rx="0.42" fill="#061237" fill-opacity="0.15"/>
<rect x="7.42969" y="25.6228" width="154.56" height="72.6536" rx="1.68" fill="#E8F6FF"/>
<rect x="7.63969" y="25.8328" width="154.14" height="72.2336" rx="1.47" stroke="#061237" stroke-opacity="0.1" stroke-width="0.42"/>
<path d="M80.7313 61.438L81.8688 60.3005L84.9969 63.4286L86.9875 61.438L88.6938 63.1442V57.9683H80.7313V61.438ZM80.1625 56.8308H89.2625C89.5766 56.8308 89.8313 57.0855 89.8313 57.3996V66.4996C89.8313 66.8137 89.5766 67.0683 89.2625 67.0683H80.1625C79.8484 67.0683 79.5938 66.8137 79.5938 66.4996V57.3996C79.5938 57.0855 79.8484 56.8308 80.1625 56.8308ZM86.7031 60.8121C86.232 60.8121 85.85 60.4301 85.85 59.9589C85.85 59.4878 86.232 59.1058 86.7031 59.1058C87.1743 59.1058 87.5563 59.4878 87.5563 59.9589C87.5563 60.4301 87.1743 60.8121 86.7031 60.8121Z" fill="#3175FF"/>
</g>
<defs>
<clipPath id="clip0_1_23808">
<rect x="0.710938" y="-0.000244141" width="168" height="105" rx="5.25" fill="white"/>
</clipPath>
</defs>
</svg>
