<svg width="16" height="16" viewBox="0 0 16 16" fill="none" xmlns="http://www.w3.org/2000/svg">
<path d="M13.9997 8.66665H12.6663C12.4775 8.66665 12.3192 8.60265 12.1917 8.47465C12.0641 8.34665 12.0001 8.18843 11.9997 7.99999C11.9992 7.81154 12.0632 7.65332 12.1917 7.52532C12.3201 7.39732 12.4783 7.33332 12.6663 7.33332H13.9997C14.1886 7.33332 14.347 7.39732 14.475 7.52532C14.603 7.65332 14.6668 7.81154 14.6663 7.99999C14.6659 8.18843 14.6019 8.34688 14.4743 8.47532C14.3468 8.60377 14.1886 8.66754 13.9997 8.66665ZM11.0663 11.2C11.1775 11.0444 11.3219 10.9555 11.4997 10.9333C11.6775 10.9111 11.8441 10.9555 11.9997 11.0667L13.0663 11.8667C13.2219 11.9778 13.3108 12.1222 13.333 12.3C13.3552 12.4778 13.3108 12.6444 13.1997 12.8C13.0886 12.9555 12.9441 13.0444 12.7663 13.0667C12.5886 13.0889 12.4219 13.0444 12.2663 12.9333L11.1997 12.1333C11.0441 12.0222 10.9552 11.8778 10.933 11.7C10.9108 11.5222 10.9552 11.3555 11.0663 11.2ZM13.0663 4.13332L11.9997 4.93332C11.8441 5.04443 11.6775 5.08888 11.4997 5.06665C11.3219 5.04443 11.1775 4.95554 11.0663 4.79999C10.9552 4.64443 10.9108 4.47776 10.933 4.29999C10.9552 4.12221 11.0441 3.97776 11.1997 3.86665L12.2663 3.06665C12.4219 2.95554 12.5886 2.9111 12.7663 2.93332C12.9441 2.95554 13.0886 3.04443 13.1997 3.19999C13.3108 3.35554 13.3552 3.52221 13.333 3.69999C13.3108 3.87776 13.2219 4.02221 13.0663 4.13332ZM3.33301 9.99999H2.66634C2.29967 9.99999 1.9859 9.86954 1.72501 9.60865C1.46412 9.34776 1.33345 9.03376 1.33301 8.66665V7.33332C1.33301 6.96665 1.46367 6.65288 1.72501 6.39199C1.98634 6.1311 2.30012 6.00043 2.66634 5.99999H5.33301L7.64967 4.59999C7.8719 4.46665 8.09701 4.46665 8.32501 4.59999C8.55301 4.73332 8.66679 4.92776 8.66634 5.18332V10.8167C8.66634 11.0722 8.55234 11.2667 8.32434 11.4C8.09634 11.5333 7.87145 11.5333 7.64967 11.4L5.33301 9.99999H4.66634V12C4.66634 12.1889 4.60234 12.3473 4.47434 12.4753C4.34634 12.6033 4.18812 12.6671 3.99967 12.6667C3.81123 12.6662 3.65301 12.6022 3.52501 12.4747C3.39701 12.3471 3.33301 12.1889 3.33301 12V9.99999ZM9.33301 10.2333V5.76665C9.63301 6.03332 9.87479 6.35843 10.0583 6.74199C10.2419 7.12554 10.3335 7.54488 10.333 7.99999C10.3326 8.4551 10.2408 8.87465 10.0577 9.25865C9.87456 9.64265 9.63301 9.96754 9.33301 10.2333Z" fill="white"/>
</svg>
