<svg width="24" height="25" viewBox="0 0 24 25" fill="none" xmlns="http://www.w3.org/2000/svg">
<path d="M20 4.32251H4C3.46957 4.32251 2.96086 4.53322 2.58579 4.9083C2.21071 5.28337 2 5.79208 2 6.32251V18.3225C2 18.8529 2.21071 19.3617 2.58579 19.7367C2.96086 20.1118 3.46957 20.3225 4 20.3225H20C20.5304 20.3225 21.0391 20.1118 21.4142 19.7367C21.7893 19.3617 22 18.8529 22 18.3225V6.32251C22 5.79208 21.7893 5.28337 21.4142 4.9083C21.0391 4.53322 20.5304 4.32251 20 4.32251ZM20 11.3225H4V8.32251H20V11.3225Z" fill="#FF9037"/>
</svg>
