<svg width="19" height="18" viewBox="0 0 19 18" fill="none" xmlns="http://www.w3.org/2000/svg">
<g clip-path="url(#clip0_1_17691)">
<path d="M5.5332 4.50015V2.25015C5.5332 2.05124 5.61222 1.86047 5.75287 1.71982C5.89353 1.57917 6.08429 1.50015 6.2832 1.50015H15.2832C15.4821 1.50015 15.6729 1.57917 15.8135 1.71982C15.9542 1.86047 16.0332 2.05124 16.0332 2.25015V12.7502C16.0332 12.9491 15.9542 13.1398 15.8135 13.2805C15.6729 13.4211 15.4821 13.5002 15.2832 13.5002H13.0332V15.7502C13.0332 16.1642 12.6957 16.5002 12.278 16.5002H3.28845C3.18955 16.5007 3.0915 16.4818 2.99994 16.4444C2.90839 16.407 2.82513 16.3518 2.75495 16.2821C2.68477 16.2124 2.62905 16.1296 2.59099 16.0383C2.55294 15.947 2.5333 15.8491 2.5332 15.7502L2.53545 5.25015C2.53545 4.83615 2.87295 4.50015 3.2907 4.50015H5.5332ZM4.03545 6.00015L4.0332 15.0002H11.5332V6.00015H4.03545ZM7.0332 4.50015H13.0332V12.0002H14.5332V3.00015H7.0332V4.50015Z" fill="#061237" fill-opacity="0.75"/>
</g>
<defs>
<clipPath id="clip0_1_17691">
<rect width="18" height="18" fill="white" transform="translate(0.287109)"/>
</clipPath>
</defs>
</svg>
