<svg width="19" height="18" viewBox="0 0 19 18" fill="none" xmlns="http://www.w3.org/2000/svg">
<g clip-path="url(#clip0_1_17687)">
<path d="M7.78699 2.24988V3.74988H4.03699V14.2499H14.537V10.4999H16.037V14.9999C16.037 15.1988 15.958 15.3896 15.8173 15.5302C15.6767 15.6709 15.4859 15.7499 15.287 15.7499H3.28699C3.08807 15.7499 2.89731 15.6709 2.75666 15.5302C2.616 15.3896 2.53699 15.1988 2.53699 14.9999V2.99988C2.53699 2.80097 2.616 2.6102 2.75666 2.46955C2.89731 2.3289 3.08807 2.24988 3.28699 2.24988H7.78699ZM13.4765 3.74988H10.037V2.24988H16.037V8.24988H14.537V4.81038L9.28699 10.0604L8.22649 8.99988L13.4765 3.74988Z" fill="#061237" fill-opacity="0.75"/>
</g>
<defs>
<clipPath id="clip0_1_17687">
<rect width="18" height="18" fill="white" transform="translate(0.287109)"/>
</clipPath>
</defs>
</svg>
