<svg width="169" height="105" viewBox="0 0 169 105" fill="none" xmlns="http://www.w3.org/2000/svg">
<g clip-path="url(#clip0_1_23836)">
<rect x="0.710938" y="-0.000244141" width="168" height="105" rx="5.25" fill="#F6F8FB"/>
<rect x="7.42969" y="6.71973" width="11.76" height="11.76" rx="2.52" fill="#E8F6FF"/>
<rect x="7.63969" y="6.92973" width="11.34" height="11.34" rx="2.31" stroke="#061237" stroke-opacity="0.1" stroke-width="0.42"/>
<rect x="22.5508" y="7.97974" width="17.7696" height="2.52" rx="0.42" fill="#061237" fill-opacity="0.3"/>
<rect x="22.5508" y="13.0198" width="63" height="1.26" rx="0.42" fill="#061237" fill-opacity="0.15"/>
<rect x="22.5508" y="15.9597" width="26.5847" height="1.26" rx="0.42" fill="#061237" fill-opacity="0.15"/>
<rect x="14.2812" y="25.6194" width="140.862" height="9.2811" rx="1.68" fill="#B4DDFF"/>
<rect x="14.4912" y="25.8294" width="140.442" height="8.8611" rx="1.47" stroke="#061237" stroke-opacity="0.1" stroke-width="0.42"/>
<rect x="10.918" y="29.4592" width="147" height="9.2811" rx="1.68" fill="#D5EEFF"/>
<rect x="11.128" y="29.6692" width="146.58" height="8.8611" rx="1.47" stroke="#061237" stroke-opacity="0.1" stroke-width="0.42"/>
<rect x="7.43359" y="33.4685" width="154.56" height="64.8104" rx="1.68" fill="#E8F6FF"/>
<rect x="7.64359" y="33.6785" width="154.14" height="64.3904" rx="1.47" stroke="#061237" stroke-opacity="0.1" stroke-width="0.42"/>
<path d="M84.7188 71.5625C81.5776 71.5625 79.0312 69.0161 79.0312 65.875C79.0312 62.7339 81.5776 60.1875 84.7188 60.1875C87.8598 60.1875 90.4062 62.7339 90.4062 65.875C90.4062 69.0161 87.8598 71.5625 84.7188 71.5625ZM83.935 63.8358C83.8976 63.8109 83.8537 63.7976 83.8088 63.7976C83.6831 63.7976 83.5813 63.8994 83.5813 64.0251V67.7249C83.5813 67.7698 83.5946 67.8138 83.6195 67.8511C83.6891 67.9557 83.8304 67.9839 83.935 67.9142L86.7098 66.0643C86.7348 66.0476 86.7562 66.0262 86.7729 66.0012C86.8426 65.8967 86.8144 65.7554 86.7098 65.6857L83.935 63.8358Z" fill="#3175FF"/>
</g>
<defs>
<clipPath id="clip0_1_23836">
<rect x="0.710938" y="-0.000244141" width="168" height="105" rx="5.25" fill="white"/>
</clipPath>
</defs>
</svg>
