<svg width="25" height="24" viewBox="0 0 25 24" fill="none" xmlns="http://www.w3.org/2000/svg">
<g clip-path="url(#clip0_584_48441)">
<rect x="0.5" width="24" height="24" rx="12" fill="white"/>
<path d="M12.5 24C15.6826 24 18.7348 22.7357 20.9853 20.4853C23.2357 18.2348 24.5 15.1826 24.5 12C24.5 8.8174 23.2357 5.76516 20.9853 3.51472C18.7348 1.26428 15.6826 0 12.5 0C9.3174 0 6.26516 1.26428 4.01472 3.51472C1.76428 5.76516 0.5 8.8174 0.5 12C0.5 15.1826 1.76428 18.2348 4.01472 20.4853C6.26516 22.7357 9.3174 24 12.5 24ZM17.7969 9.79688L11.7969 15.7969C11.3562 16.2375 10.6438 16.2375 10.2078 15.7969L7.20781 12.7969C6.76719 12.3562 6.76719 11.6438 7.20781 11.2078C7.64844 10.7719 8.36094 10.7672 8.79688 11.2078L11 13.4109L16.2031 8.20312C16.6437 7.7625 17.3562 7.7625 17.7922 8.20312C18.2281 8.64375 18.2328 9.35625 17.7922 9.79219L17.7969 9.79688Z" fill="#0ABF7E"/>
</g>
<defs>
<clipPath id="clip0_584_48441">
<rect x="0.5" width="24" height="24" rx="12" fill="white"/>
</clipPath>
</defs>
</svg>
