<svg width="25" height="25" viewBox="0 0 25 25" fill="none" xmlns="http://www.w3.org/2000/svg">
<path d="M14.5 3.39451C15.4525 3.94445 16.2813 4.68489 16.9348 5.56957C17.5882 6.45426 18.0522 7.46418 18.2978 8.53625C18.5434 9.60833 18.5653 10.7195 18.3621 11.8004C18.159 12.8814 17.7351 13.9088 17.117 14.8185L22.061 19.7615C22.3363 20.0327 22.4962 20.3997 22.5075 20.786C22.5188 21.1723 22.3806 21.548 22.1217 21.8349C21.8628 22.1218 21.5032 22.2977 21.1178 22.3259C20.7324 22.3542 20.351 22.2326 20.053 21.9865L19.939 21.8835L14.996 16.9395C13.8134 17.7428 12.4371 18.2145 11.0104 18.3056C9.58367 18.3966 8.15861 18.1037 6.88348 17.4572C5.60835 16.8108 4.52975 15.8344 3.75989 14.6298C2.99004 13.4252 2.55706 12.0362 2.506 10.6075L2.5 10.3225L2.505 10.0375C2.55419 8.65826 2.95937 7.31519 3.68115 6.13884C4.40292 4.96249 5.41675 3.99288 6.62409 3.32424C7.83143 2.65559 9.19122 2.31067 10.5713 2.32298C11.9514 2.33529 13.3048 2.70443 14.5 3.39451Z" fill="#00A36C"/>
</svg>
