<svg width="14" height="14" viewBox="0 0 14 14" fill="none" xmlns="http://www.w3.org/2000/svg">
<path d="M7.23047 0.177734C3.64641 0.177734 0.730469 3.09367 0.730469 6.67773C0.730469 10.2618 3.64641 13.1777 7.23047 13.1777C10.8145 13.1777 13.7305 10.2618 13.7305 6.67773C13.7305 3.09367 10.8145 0.177734 7.23047 0.177734ZM9.58391 8.3243C9.63229 8.37026 9.67098 8.42545 9.6977 8.48661C9.72442 8.54777 9.73862 8.61365 9.73948 8.68038C9.74033 8.74712 9.72782 8.81335 9.70268 8.87517C9.67753 8.93699 9.64026 8.99315 9.59307 9.04034C9.54588 9.08753 9.48972 9.1248 9.4279 9.14994C9.36608 9.17509 9.29985 9.1876 9.23312 9.18674C9.16639 9.18589 9.1005 9.17169 9.03934 9.14497C8.97819 9.11825 8.923 9.07956 8.87703 9.03117L7.23047 7.38492L5.58391 9.03117C5.48938 9.12098 5.3635 9.17031 5.23312 9.16864C5.10274 9.16697 4.97817 9.11444 4.88597 9.02224C4.79377 8.93004 4.74123 8.80546 4.73956 8.67508C4.73789 8.5447 4.78722 8.41883 4.87703 8.3243L6.52328 6.67773L4.87703 5.03117C4.78722 4.93664 4.73789 4.81077 4.73956 4.68039C4.74123 4.55 4.79377 4.42543 4.88597 4.33323C4.97817 4.24103 5.10274 4.1885 5.23312 4.18683C5.3635 4.18516 5.48938 4.23449 5.58391 4.3243L7.23047 5.97055L8.87703 4.3243C8.97156 4.23449 9.09744 4.18516 9.22782 4.18683C9.3582 4.1885 9.48277 4.24103 9.57497 4.33323C9.66717 4.42543 9.71971 4.55 9.72138 4.68039C9.72305 4.81077 9.67372 4.93664 9.58391 5.03117L7.93766 6.67773L9.58391 8.3243Z" fill="#061237"/>
</svg>
