<svg width="169" height="105" viewBox="0 0 169 105" fill="none" xmlns="http://www.w3.org/2000/svg">
<g clip-path="url(#clip0_1_23822)">
<rect x="0.710938" y="-0.000244141" width="168" height="105" rx="5.25" fill="#F6F8FB"/>
<rect x="7.42969" y="6.71973" width="11.76" height="11.76" rx="2.52" fill="#E8F6FF"/>
<rect x="7.63969" y="6.92973" width="11.34" height="11.34" rx="2.31" stroke="#061237" stroke-opacity="0.1" stroke-width="0.42"/>
<rect x="22.5508" y="7.97974" width="17.7696" height="2.52" rx="0.42" fill="#061237" fill-opacity="0.3"/>
<rect x="22.5508" y="13.0198" width="63" height="1.26" rx="0.42" fill="#061237" fill-opacity="0.15"/>
<rect x="22.5508" y="15.9597" width="26.5847" height="1.26" rx="0.42" fill="#061237" fill-opacity="0.15"/>
<rect x="7.42969" y="25.6228" width="154.56" height="72.6536" rx="1.68" fill="#E8F6FF"/>
<rect x="7.63969" y="25.8328" width="154.14" height="72.2336" rx="1.47" stroke="#061237" stroke-opacity="0.1" stroke-width="0.42"/>
<path d="M84.5508 67.5635C81.4097 67.5635 78.8633 65.0171 78.8633 61.876C78.8633 58.7349 81.4097 56.1885 84.5508 56.1885C87.6919 56.1885 90.2383 58.7349 90.2383 61.876C90.2383 65.0171 87.6919 67.5635 84.5508 67.5635ZM83.767 59.8368C83.7296 59.8119 83.6857 59.7986 83.6408 59.7986C83.5151 59.7986 83.4133 59.9004 83.4133 60.0261V63.7259C83.4133 63.7708 83.4266 63.8147 83.4515 63.8521C83.5212 63.9566 83.6625 63.9849 83.767 63.9152L86.5419 62.0653C86.5668 62.0486 86.5883 62.0272 86.6049 62.0022C86.6747 61.8976 86.6464 61.7564 86.5419 61.6867L83.767 59.8368Z" fill="#3175FF"/>
</g>
<defs>
<clipPath id="clip0_1_23822">
<rect x="0.710938" y="-0.000244141" width="168" height="105" rx="5.25" fill="white"/>
</clipPath>
</defs>
</svg>
