<svg width="22" height="22" viewBox="0 0 22 22" fill="none" xmlns="http://www.w3.org/2000/svg">
<g clip-path="url(#clip0_106_759)">
<path d="M21.5615 5.67C21.4371 5.20196 21.192 4.7748 20.8506 4.43127C20.5093 4.08773 20.0837 3.83988 19.6165 3.7125C17.8965 3.25 11.0215 3.25 11.0215 3.25C11.0215 3.25 4.14648 3.25 2.42648 3.7125C1.95925 3.83988 1.53367 4.08773 1.19233 4.43127C0.850991 4.7748 0.605864 5.20196 0.481484 5.67C0.0214844 7.3975 0.0214844 11 0.0214844 11C0.0214844 11 0.0214844 14.6025 0.481484 16.33C0.605864 16.798 0.850991 17.2252 1.19233 17.5687C1.53367 17.9123 1.95925 18.1601 2.42648 18.2875C4.14648 18.75 11.0215 18.75 11.0215 18.75C11.0215 18.75 17.8965 18.75 19.6165 18.2875C20.0837 18.1601 20.5093 17.9123 20.8506 17.5687C21.192 17.2252 21.4371 16.798 21.5615 16.33C22.0215 14.6025 22.0215 11 22.0215 11C22.0215 11 22.0215 7.3975 21.5615 5.67Z" fill="#FF0302"/>
<path d="M8.77148 14.2713V7.72879L14.5215 11L8.77148 14.2713Z" fill="#FEFEFE"/>
</g>
<defs>
<clipPath id="clip0_106_759">
<rect width="22" height="22" fill="white"/>
</clipPath>
</defs>
</svg>
